<svg xmlns="http://www.w3.org/2000/svg" xmlns:xlink="http://www.w3.org/1999/xlink" width="876.5" height="1080" viewBox="1043.5 0 876.5 1080"><linearGradient id="a" gradientUnits="userSpaceOnUse" x1="1313.242" y1="-74.533" x2="1642.838" y2="1155.533"><stop offset="0" stop-color="#9e9e9e"/><stop offset=".697" stop-color="#4e4e4e"/></linearGradient><path fill="url(#a)" stroke="#535353" stroke-width="1.51" d="M1035.079 0H1920l1 1081h-884.921z"/><defs><path id="b" d="M2006 1180l4.616-631.8L1924 633l-89.64 78.684L1804 742l-90 37-106 23-39 13-88-18-96 19-60-1-86 44-49 36-108 79-43 36 5 92-8.921 67.405"/></defs><clipPath id="c"><use xlink:href="#b" overflow="visible"/></clipPath><path clip-path="url(#c)" fill="#303030" stroke="#303030" stroke-width="1.51" d="M1415 1173l-142 27 376-8-234-19z"/><path clip-path="url(#c)" fill="#262626" stroke="#262626" stroke-width="1.51" d="M1649 1192l-376 8h561l-185-8z"/><path clip-path="url(#c)" fill="#313131" stroke="#313131" stroke-width="1.51" d="M1987 809l-27 45 29 36-2-81z"/><path clip-path="url(#c)" fill="#404040" stroke="#404040" stroke-width="1.51" d="M1924 633l-6 108 88 9-82-117z"/><path clip-path="url(#c)" fill="#414141" stroke="#414141" stroke-width="1.51" d="M1924 633l82 117 13-122-95 5z"/><path clip-path="url(#c)" fill="#0F0F0F" stroke="#0F0F0F" stroke-width="1.51" d="M1931 1170l-97 30 186 2-89-32z"/><path clip-path="url(#c)" fill="#0F0F0F" stroke="#0F0F0F" stroke-width="1.51" d="M1989 1106l-58 64 89 32-31-96z"/><path clip-path="url(#c)" fill="#313131" stroke="#313131" stroke-width="1.51" d="M2006 750l-19 59 38 143-19-202z"/><path clip-path="url(#c)" fill="#2D2D2D" stroke="#2D2D2D" stroke-width="1.51" d="M1987 809l2 81 36 62-38-143z"/><path clip-path="url(#c)" fill="#353535" stroke="#353535" stroke-width="1.51" d="M2019 628l-13 122 19 202-6-324z"/><path clip-path="url(#c)" fill="#1B1B1B" stroke="#1B1B1B" stroke-width="1.51" d="M1907 1036l37 52 91-73-128 21z"/><path clip-path="url(#c)" fill="#212121" stroke="#212121" stroke-width="1.51" d="M2025 952l-101 11 111 52-10-63z"/><path clip-path="url(#c)" fill="#202020" stroke="#202020" stroke-width="1.51" d="M1924 963l-17 73 128-21-111-52z"/><path clip-path="url(#c)" fill="#171717" stroke="#171717" stroke-width="1.51" d="M1944 1088l45 18 46-91-91 73z"/><path clip-path="url(#c)" fill="#121212" stroke="#121212" stroke-width="1.51" d="M1989 1106l31 96 15-187-46 91z"/><path clip-path="url(#c)" fill="#2D2D2D" stroke="#2D2D2D" stroke-width="1.51" d="M2019 628l6 324 10 63-16-387z"/><path clip-path="url(#c)" fill="#474747" stroke="#474747" stroke-width="1.51" d="M2008 551l-84 82 95-5-11-77z"/><path clip-path="url(#c)" fill="#272727" stroke="#272727" stroke-width="1.51" d="M1989 890l-65 73 101-11-36-62z"/><path clip-path="url(#c)" fill="#1A1A1A" stroke="#1A1A1A" stroke-width="1.51" d="M1794 1188l-145 4 185 8-40-12z"/><path clip-path="url(#c)" fill="#393939" stroke="#393939" stroke-width="1.51" d="M1918 741l69 68 19-59-88-9z"/><path clip-path="url(#c)" fill="#151515" stroke="#151515" stroke-width="1.51" d="M1944 1088l-13 82 58-64-45-18z"/><path clip-path="url(#c)" fill="#393939" stroke="#393939" stroke-width="1.51" d="M1918 741l-4 84 73-16-69-68z"/><path clip-path="url(#c)" fill="#2D2D2D" stroke="#2D2D2D" stroke-width="1.51" d="M1960 854l-36 109 65-73-29-36z"/><path clip-path="url(#c)" fill="#343434" stroke="#343434" stroke-width="1.51" d="M1914 825l46 29 27-45-73 16z"/><path clip-path="url(#c)" fill="#2D2D2D" stroke="#2D2D2D" stroke-width="1.51" d="M1495 1166l-80 7 234 19-154-26z"/><path clip-path="url(#c)" fill="#303030" stroke="#303030" stroke-width="1.51" d="M1872 871l52 92 36-109-88 17z"/><path clip-path="url(#c)" fill="#353535" stroke="#353535" stroke-width="1.51" d="M1914 825l-42 46 88-17-46-29z"/><path clip-path="url(#c)" fill="#2E2E2E" stroke="#2E2E2E" stroke-width="1.51" d="M1872 871l-16 79 68 13-52-92z"/><path clip-path="url(#c)" fill="#444" stroke="#444" stroke-width="1.51" d="M1834 712l84 29 6-108-90 79z"/><path clip-path="url(#c)" fill="#181818" stroke="#181818" stroke-width="1.51" d="M1850 1091l81 79 13-82-94 3z"/><path clip-path="url(#c)" fill="#1B1B1B" stroke="#1B1B1B" stroke-width="1.51" d="M1907 1036l-57 55 94-3-37-52z"/><path clip-path="url(#c)" fill="#3D3D3D" stroke="#3D3D3D" stroke-width="1.51" d="M1832 789l82 36 4-84-86 48z"/><path clip-path="url(#c)" fill="#232323" stroke="#232323" stroke-width="1.51" d="M1857 1017l50 19 17-73-67 54z"/><path clip-path="url(#c)" fill="#161616" stroke="#161616" stroke-width="1.51" d="M1850 1091l-16 109 97-30-81-79z"/><path clip-path="url(#c)" fill="#282828" stroke="#282828" stroke-width="1.51" d="M1856 950l1 67 67-54-68-13z"/><path clip-path="url(#c)" fill="#414141" stroke="#414141" stroke-width="1.51" d="M1834 712l-2 77 86-48-84-29z"/><path clip-path="url(#c)" fill="#393939" stroke="#393939" stroke-width="1.51" d="M1832 789l40 82 42-46-82-36z"/><path clip-path="url(#c)" fill="#1F1F1F" stroke="#1F1F1F" stroke-width="1.51" d="M1857 1017l-7 74 57-55-50-19z"/><path clip-path="url(#c)" fill="#444" stroke="#444" stroke-width="1.51" d="M1804 742l28 47 2-77-30 30z"/><path clip-path="url(#c)" fill="#181818" stroke="#181818" stroke-width="1.51" d="M1794 1188l40 12 16-109-56 97z"/><path clip-path="url(#c)" fill="#1C1C1C" stroke="#1C1C1C" stroke-width="1.51" d="M1799 1088l-5 100 56-97-51-3z"/><path clip-path="url(#c)" fill="#353535" stroke="#353535" stroke-width="1.51" d="M1758 879l98 71 16-79-114 8z"/><path clip-path="url(#c)" fill="#202020" stroke="#202020" stroke-width="1.51" d="M1799 1088l51 3 7-74-58 71z"/><path clip-path="url(#c)" fill="#3D3D3D" stroke="#3D3D3D" stroke-width="1.51" d="M1832 789l-61 18 101 64-40-82z"/><path clip-path="url(#c)" fill="#3C3C3C" stroke="#3C3C3C" stroke-width="1.51" d="M1771 807l-13 72 114-8-101-64z"/><path clip-path="url(#c)" fill="#323232" stroke="#323232" stroke-width="1.51" d="M1758 879l29 86 69-15-98-71z"/><path clip-path="url(#c)" fill="#2B2B2B" stroke="#2B2B2B" stroke-width="1.51" d="M1856 950l-69 15 70 52-1-67z"/><path clip-path="url(#c)" fill="#242424" stroke="#242424" stroke-width="1.51" d="M1765 1015l34 73 58-71-92-2z"/><path clip-path="url(#c)" fill="#292929" stroke="#292929" stroke-width="1.51" d="M1787 965l-22 50 92 2-70-52z"/><path clip-path="url(#c)" fill="#1D1D1D" stroke="#1D1D1D" stroke-width="1.51" d="M1718 1168l-69 24 145-4-76-20z"/><path clip-path="url(#c)" fill="#424242" stroke="#424242" stroke-width="1.51" d="M1804 742l-33 65 61-18-28-47z"/><path clip-path="url(#c)" fill="#373737" stroke="#373737" stroke-width="1.51" d="M1758 879l-23 13 52 73-29-86z"/><path clip-path="url(#c)" fill="#1E1E1E" stroke="#1E1E1E" stroke-width="1.51" d="M1736 1095l-18 73 76 20-58-93z"/><path clip-path="url(#c)" fill="#1E1E1E" stroke="#1E1E1E" stroke-width="1.51" d="M1736 1095l58 93 5-100-63 7z"/><path clip-path="url(#c)" fill="#232323" stroke="#232323" stroke-width="1.51" d="M1765 1015l-29 80 63-7-34-73z"/><path clip-path="url(#c)" fill="#454545" stroke="#454545" stroke-width="1.51" d="M1714 779l57 28 33-65-90 37z"/><path clip-path="url(#c)" fill="#353535" stroke="#353535" stroke-width="1.51" d="M1735 892l-19 84 71-11-52-73z"/><path clip-path="url(#c)" fill="#2E2E2E" stroke="#2E2E2E" stroke-width="1.51" d="M1716 976l49 39 22-50-71 11z"/><path clip-path="url(#c)" fill="#282828" stroke="#282828" stroke-width="1.51" d="M1698 1031l38 64 29-80-67 16z"/><path clip-path="url(#c)" fill="#404040" stroke="#404040" stroke-width="1.51" d="M1714 779l21 113 23-13-44-100z"/><path clip-path="url(#c)" fill="#424242" stroke="#424242" stroke-width="1.51" d="M1714 779l44 100 13-72-57-28z"/><path clip-path="url(#c)" fill="#2E2E2E" stroke="#2E2E2E" stroke-width="1.51" d="M1716 976l-18 55 67-16-49-39z"/><path clip-path="url(#c)" fill="#4A4A4A" stroke="#4A4A4A" stroke-width="1.51" d="M1608 802l27 94 79-117-106 23z"/><path clip-path="url(#c)" fill="#444" stroke="#444" stroke-width="1.51" d="M1714 779l-79 117 100-4-21-113z"/><path clip-path="url(#c)" fill="#373737" stroke="#373737" stroke-width="1.51" d="M1660 970l56 6 19-84-75 78z"/><path clip-path="url(#c)" fill="#3D3D3D" stroke="#3D3D3D" stroke-width="1.51" d="M1635 896l25 74 75-78-100 4z"/><path clip-path="url(#c)" fill="#242424" stroke="#242424" stroke-width="1.51" d="M1635 1108l83 60 18-73-101 13z"/><path clip-path="url(#c)" fill="#292929" stroke="#292929" stroke-width="1.51" d="M1698 1031l-63 77 101-13-38-64z"/><path clip-path="url(#c)" fill="#323232" stroke="#323232" stroke-width="1.51" d="M1660 970l38 61 18-55-56-6z"/><path clip-path="url(#c)" fill="#232323" stroke="#232323" stroke-width="1.51" d="M1635 1108l14 84 69-24-83-60z"/><path clip-path="url(#c)" fill="#2D2D2D" stroke="#2D2D2D" stroke-width="1.51" d="M1640 1029l-5 79 63-77-58-2z"/><path clip-path="url(#c)" fill="#323232" stroke="#323232" stroke-width="1.51" d="M1660 970l-20 59 58 2-38-61z"/><path clip-path="url(#c)" fill="#464646" stroke="#464646" stroke-width="1.51" d="M1586 888l-41 44 90-36-49-8z"/><path clip-path="url(#c)" fill="#414141" stroke="#414141" stroke-width="1.51" d="M1545 932l39 68 51-104-90 36z"/><path clip-path="url(#c)" fill="#4A4A4A" stroke="#4A4A4A" stroke-width="1.51" d="M1608 802l-22 86 49 8-27-94z"/><path clip-path="url(#c)" fill="#292929" stroke="#292929" stroke-width="1.51" d="M1586 1153l-91 13 154 26-63-39z"/><path clip-path="url(#c)" fill="#272727" stroke="#272727" stroke-width="1.51" d="M1635 1108l-49 45 63 39-14-84z"/><path clip-path="url(#c)" fill="#373737" stroke="#373737" stroke-width="1.51" d="M1584 1000l56 29 20-59-76 30z"/><path clip-path="url(#c)" fill="#3D3D3D" stroke="#3D3D3D" stroke-width="1.51" d="M1635 896l-51 104 76-30-25-74z"/><path clip-path="url(#c)" fill="#303030" stroke="#303030" stroke-width="1.51" d="M1545 1080l90 28 5-79-95 51z"/><path clip-path="url(#c)" fill="#4F4F4F" stroke="#4F4F4F" stroke-width="1.51" d="M1569 815l17 73 22-86-39 13z"/><path clip-path="url(#c)" fill="#353535" stroke="#353535" stroke-width="1.51" d="M1584 1000l-39 80 95-51-56-29z"/><path clip-path="url(#c)" fill="#2D2D2D" stroke="#2D2D2D" stroke-width="1.51" d="M1545 1080l41 73 49-45-90-28z"/><path clip-path="url(#c)" fill="#383838" stroke="#383838" stroke-width="1.51" d="M1491 1053l54 27 39-80-93 53z"/><path clip-path="url(#c)" fill="#2F2F2F" stroke="#2F2F2F" stroke-width="1.51" d="M1545 1080l-50 86 91-13-41-73z"/><path clip-path="url(#c)" fill="#4F4F4F" stroke="#4F4F4F" stroke-width="1.51" d="M1569 815l-62 57 79 16-17-73z"/><path clip-path="url(#c)" fill="#4B4B4B" stroke="#4B4B4B" stroke-width="1.51" d="M1507 872l38 60 41-44-79-16z"/><path clip-path="url(#c)" fill="#3F3F3F" stroke="#3F3F3F" stroke-width="1.51" d="M1545 932l-54 121 93-53-39-68z"/><path clip-path="url(#c)" fill="#444" stroke="#444" stroke-width="1.51" d="M1477 938l14 115 54-121-68 6z"/><path clip-path="url(#c)" fill="#343434" stroke="#343434" stroke-width="1.51" d="M1478 1101l17 65 50-86-67 21z"/><path clip-path="url(#c)" fill="#373737" stroke="#373737" stroke-width="1.51" d="M1331 1175l-58 25 142-27-84 2z"/><path clip-path="url(#c)" fill="#555" stroke="#555" stroke-width="1.51" d="M1481 797l26 75 62-57-88-18z"/><path clip-path="url(#c)" fill="#383838" stroke="#383838" stroke-width="1.51" d="M1491 1053l-13 48 67-21-54-27z"/><path clip-path="url(#c)" fill="#4C4C4C" stroke="#4C4C4C" stroke-width="1.51" d="M1507 872l-30 66 68-6-38-60z"/><path clip-path="url(#c)" fill="#474747" stroke="#474747" stroke-width="1.51" d="M1427 954l6 91 44-107-50 16z"/><path clip-path="url(#c)" fill="#414141" stroke="#414141" stroke-width="1.51" d="M1477 938l-44 107 58 8-14-115z"/><path clip-path="url(#c)" fill="#575757" stroke="#575757" stroke-width="1.51" d="M1481 797l-76 92 102-17-26-75z"/><path clip-path="url(#c)" fill="#515151" stroke="#515151" stroke-width="1.51" d="M1405 889l72 49 30-66-102 17z"/><path clip-path="url(#c)" fill="#5B5B5B" stroke="#5B5B5B" stroke-width="1.51" d="M1385 816l20 73 76-92-96 19z"/><path clip-path="url(#c)" fill="#3B3B3B" stroke="#3B3B3B" stroke-width="1.51" d="M1433 1045l45 56 13-48-58-8z"/><path clip-path="url(#c)" fill="#333" stroke="#333" stroke-width="1.51" d="M1478 1101l-63 72 80-7-17-65z"/><path clip-path="url(#c)" fill="#3B3B3B" stroke="#3B3B3B" stroke-width="1.51" d="M1433 1045l-8 42 53 14-45-56z"/><path clip-path="url(#c)" fill="#373737" stroke="#373737" stroke-width="1.51" d="M1425 1087l-10 86 63-72-53-14z"/><path clip-path="url(#c)" fill="#4F4F4F" stroke="#4F4F4F" stroke-width="1.51" d="M1405 889l22 65 50-16-72-49z"/><path clip-path="url(#c)" fill="#393939" stroke="#393939" stroke-width="1.51" d="M1358 1095l57 78 10-86-67 8z"/><path clip-path="url(#c)" fill="#3E3E3E" stroke="#3E3E3E" stroke-width="1.51" d="M1358 1095l67-8 8-42-75 50z"/><path clip-path="url(#c)" fill="#414141" stroke="#414141" stroke-width="1.51" d="M1312 1040l46 55 75-50-121-5z"/><path clip-path="url(#c)" fill="#494949" stroke="#494949" stroke-width="1.51" d="M1427 954l-96-7 102 98-6-91z"/><path clip-path="url(#c)" fill="#484848" stroke="#484848" stroke-width="1.51" d="M1331 947l-19 93 121 5-102-98z"/><path clip-path="url(#c)" fill="#515151" stroke="#515151" stroke-width="1.51" d="M1405 889l-74 58 96 7-22-65z"/><path clip-path="url(#c)" fill="#565656" stroke="#565656" stroke-width="1.51" d="M1329 893l2 54 74-58-76 4z"/><path clip-path="url(#c)" fill="#383838" stroke="#383838" stroke-width="1.51" d="M1358 1095l-27 80 84-2-57-78z"/><path clip-path="url(#c)" fill="#5B5B5B" stroke="#5B5B5B" stroke-width="1.51" d="M1385 816l-56 77 76-4-20-73z"/><path clip-path="url(#c)" fill="#5F5F5F" stroke="#5F5F5F" stroke-width="1.51" d="M1325 815l4 78 56-77-60-1z"/><path clip-path="url(#c)" fill="#4D4D4D" stroke="#4D4D4D" stroke-width="1.51" d="M1281 1008l31 32 19-93-50 61z"/><path clip-path="url(#c)" fill="#3D3D3D" stroke="#3D3D3D" stroke-width="1.51" d="M1253 1122l78 53 27-80-105 27z"/><path clip-path="url(#c)" fill="#424242" stroke="#424242" stroke-width="1.51" d="M1312 1040l-59 82 105-27-46-55z"/><path clip-path="url(#c)" fill="#606060" stroke="#606060" stroke-width="1.51" d="M1325 815l-86 44 90 34-4-78z"/><path clip-path="url(#c)" fill="#565656" stroke="#565656" stroke-width="1.51" d="M1329 893l-73 73 75-19-2-54z"/><path clip-path="url(#c)" fill="#515151" stroke="#515151" stroke-width="1.51" d="M1256 966l25 42 50-61-75 19z"/><path clip-path="url(#c)" fill="#5C5C5C" stroke="#5C5C5C" stroke-width="1.51" d="M1239 859l17 107 73-73-90-34z"/><path clip-path="url(#c)" fill="#3B3B3B" stroke="#3B3B3B" stroke-width="1.51" d="M1253 1122l20 78 58-25-78-53z"/><path clip-path="url(#c)" fill="#464646" stroke="#464646" stroke-width="1.51" d="M1281 1008l-28 114 59-82-31-32z"/><path clip-path="url(#c)" fill="#5E5E5E" stroke="#5E5E5E" stroke-width="1.51" d="M1239 859l-49 36 66 71-17-107z"/><path clip-path="url(#c)" fill="#4A4A4A" stroke="#4A4A4A" stroke-width="1.51" d="M1185 1003l68 119 28-114-96-5z"/><path clip-path="url(#c)" fill="#494949" stroke="#494949" stroke-width="1.51" d="M1185 1003l-28 104 96 15-68-119z"/><path clip-path="url(#c)" fill="#515151" stroke="#515151" stroke-width="1.51" d="M1256 966l-71 37 96 5-25-42z"/><path clip-path="url(#c)" fill="#3E3E3E" stroke="#3E3E3E" stroke-width="1.51" d="M1253 1122l-82 70 102 8-20-78z"/><path clip-path="url(#c)" fill="#545454" stroke="#545454" stroke-width="1.51" d="M1195 977l-10 26 71-37-61 11z"/><path clip-path="url(#c)" fill="#595959" stroke="#595959" stroke-width="1.51" d="M1190 895l5 82 61-11-66-71z"/><path clip-path="url(#c)" fill="#434343" stroke="#434343" stroke-width="1.51" d="M1157 1107l14 85 82-70-96-15z"/><path clip-path="url(#c)" fill="#4E4E4E" stroke="#4E4E4E" stroke-width="1.51" d="M1136 1041l21 66 28-104-49 38z"/><path clip-path="url(#c)" fill="#454545" stroke="#454545" stroke-width="1.51" d="M1109 1161l-74 9 136 22-62-31z"/><path clip-path="url(#c)" fill="#5D5D5D" stroke="#5D5D5D" stroke-width="1.51" d="M1190 895l-108 79 113 3-5-82z"/><path clip-path="url(#c)" fill="#454545" stroke="#454545" stroke-width="1.51" d="M1157 1107l-48 54 62 31-14-85z"/><path clip-path="url(#c)" fill="#585858" stroke="#585858" stroke-width="1.51" d="M1082 974l103 29 10-26-113-3z"/><path clip-path="url(#c)" fill="#4D4D4D" stroke="#4D4D4D" stroke-width="1.51" d="M1136 1041l-16 36 37 30-21-66z"/><path clip-path="url(#c)" fill="#555" stroke="#555" stroke-width="1.51" d="M1082 974l54 67 49-38-103-29z"/><path clip-path="url(#c)" fill="#494949" stroke="#494949" stroke-width="1.51" d="M1120 1077l-11 84 48-54-37-30z"/><path clip-path="url(#c)" fill="#4C4C4C" stroke="#4C4C4C" stroke-width="1.51" d="M1044 1102l65 59 11-84-76 25z"/><path clip-path="url(#c)" fill="#535353" stroke="#535353" stroke-width="1.51" d="M1039 1010l81 67 16-36-97-31z"/><path clip-path="url(#c)" fill="#595959" stroke="#595959" stroke-width="1.51" d="M1082 974l-43 36 97 31-54-67z"/><path clip-path="url(#c)" fill="#525252" stroke="#525252" stroke-width="1.51" d="M1039 1010l5 92 76-25-81-67z"/><path clip-path="url(#c)" fill="#4B4B4B" stroke="#4B4B4B" stroke-width="1.51" d="M1044 1102l-9 68 74-9-65-59z"/></svg>